# xmcd CD database file
#
# Track frame offsets:
#	150
#	17672
#	40942
#	66290
#	83602
#	116767
#	142267
#	159447
#	181045
#	203760
#	221770
#	247905
#
# Disc length: 3552 seconds
#
# Revision: 6
# Processed by: cddbd v1.5.2PL0 Copyright (c) Steve Scherf et al.
# Submitted via: CDex 1.51
#
DISCID=a20dde0c
DTITLE=Yanni - Dare To Dream
DYEAR=1992
DGENRE=New Age
TTITLE0=Once Upon A Time
TTITLE1=A Love For Life
TTITLE2=Nice To Meet You
TTITLE3=So Long My Friend
TTITLE4=You Only Live Once
TTITLE5=To The One Who Knows
TTITLE6=Face In The Photograph
TTITLE7=Felitsa
TTITLE8=Desire
TTITLE9=Aria
TTITLE10=A Night To Remember
TTITLE11=In The Mirror
EXTD=YEAR: 1992
EXTT0=
EXTT1=
EXTT2=
EXTT3=
EXTT4=
EXTT5=
EXTT6=
EXTT7=
EXTT8=
EXTT9=
EXTT10=
EXTT11=
PLAYORDER=
